<!DOCTYPE svg PUBLIC "-//W3C//DTD SVG 20010904//EN" "http://www.w3.org/TR/2001/REC-SVG-20010904/DTD/svg10.dtd">
<svg version="1.0" xmlns="http://www.w3.org/2000/svg" width="398px" height="143px" viewBox="0 0 3980 1430" preserveAspectRatio="xMidYMid meet">
<g id="layer101" fill="#121212" stroke="none">
 <path d="M1011 1405 c-42 -36 -55 -82 -42 -145 17 -78 46 -126 125 -205 l73 -73 -101 -4 c-127 -5 -202 -35 -272 -110 -65 -70 -87 -125 -92 -233 -7 -150 26 -269 102 -373 80 -108 196 -164 341 -165 96 -1 149 14 194 56 76 70 82 240 10 291 -33 23 -85 20 -110 -5 -19 -19 -21 -29 -15 -85 9 -83 -9 -104 -86 -104 -132 1 -222 99 -249 270 -13 83 0 168 34 217 33 50 110 84 190 84 35 0 81 -7 101 -15 33 -14 36 -18 36 -55 l0 -41 -53 0 c-72 0 -97 -19 -97 -74 0 -72 19 -81 165 -81 166 0 171 6 150 159 -6 47 -9 86 -7 86 2 0 21 -13 42 -30 34 -27 38 -35 43 -92 9 -92 34 -165 62 -184 25 -16 95 -22 115 -9 9 5 11 23 7 56 l-6 48 35 -39 c65 -72 169 -96 208 -48 16 20 18 34 12 108 l-6 85 17 -50 c12 -33 34 -67 68 -101 43 -43 61 -54 106 -63 59 -12 113 -4 154 23 35 23 74 78 81 114 5 25 12 32 30 32 23 0 24 -3 24 -63 0 -73 16 -102 60 -110 32 -7 80 7 92 26 4 7 8 55 9 107 1 141 9 150 48 54 55 -137 63 -153 83 -171 26 -23 86 -22 104 2 9 12 14 48 15 99 0 45 4 104 7 131 l7 50 21 -35 c18 -28 21 -45 17 -87 -6 -59 22 -131 60 -156 56 -36 119 -26 144 23 12 24 13 24 13 3 0 -32 27 -53 66 -53 29 0 34 -4 39 -27 17 -82 71 -227 100 -271 44 -65 86 -94 144 -100 36 -3 52 1 72 17 73 57 59 236 -27 348 l-25 33 50 0 c47 0 51 -2 51 -24 0 -47 50 -219 84 -290 41 -84 98 -142 150 -152 181 -33 204 230 40 458 l-35 49 33 -17 c48 -25 107 -22 130 6 20 25 24 103 8 180 -5 25 -12 94 -16 154 -8 129 -19 146 -87 146 -78 0 -94 -42 -73 -195 7 -55 12 -101 11 -103 -6 -7 -66 122 -84 183 -32 102 -42 115 -96 115 -36 0 -48 -5 -60 -24 l-16 -24 -42 24 c-33 18 -57 24 -107 24 -115 -1 -180 -50 -209 -158 l-11 -40 -37 10 c-21 6 -63 8 -94 6 l-56 -4 -37 58 c-21 31 -56 73 -77 93 -37 33 -45 36 -92 33 -46 -3 -54 -7 -74 -37 -13 -19 -23 -48 -23 -65 0 -29 -1 -28 -33 24 -17 30 -43 60 -57 67 -34 17 -101 16 -127 -2 -24 -17 -53 -99 -53 -148 0 -26 -3 -29 -22 -23 -13 3 -26 6 -30 6 -4 0 -16 19 -26 43 -24 51 -75 105 -119 123 -18 8 -59 14 -91 14 -75 0 -139 -37 -170 -100 -20 -41 -21 -42 -76 -43 -75 -3 -108 -34 -116 -109 l-5 -52 -31 59 c-17 33 -44 97 -59 143 -29 89 -42 102 -100 102 -30 0 -39 -5 -56 -35 -12 -19 -23 -35 -25 -35 -3 0 -28 16 -57 35 -51 35 -52 35 -74 126 -61 250 -140 359 -259 359 -42 0 -59 -5 -83 -25z m132 -154 c11 -17 25 -53 33 -79 l14 -47 -26 30 c-49 59 -82 143 -52 133 7 -3 21 -19 31 -37z m1032 -436 c31 -30 31 -35 0 -81 -13 -20 -27 -51 -31 -70 -8 -42 -19 -43 -39 -4 -23 44 -20 135 5 160 26 26 36 25 65 -5z m1309 -17 c32 -31 35 -38 41 -122 6 -83 5 -88 -12 -81 -10 5 -55 10 -100 13 l-83 4 0 77 c0 103 22 141 80 141 32 0 47 -7 74 -32z m-322 -172 c5 -7 -4 -13 -22 -17 -17 -4 -36 -12 -44 -18 -11 -9 -15 -7 -20 11 -12 46 -9 50 37 43 23 -4 45 -13 49 -19z m594 -290 c36 -75 57 -186 36 -186 -14 0 -46 99 -76 233 -11 47 4 30 40 -47z m-371 12 c26 -60 41 -128 27 -128 -11 0 -37 60 -47 110 -3 19 -9 43 -11 53 -11 36 8 15 31 -35z"/>
 <path d="M242 982 c-43 -7 -55 -41 -43 -127 16 -114 22 -105 -67 -105 -98 0 -122 -14 -122 -71 0 -65 23 -79 130 -79 49 0 90 -1 90 -2 0 -2 7 -48 15 -103 15 -111 31 -135 90 -135 58 0 69 24 61 140 l-7 100 85 0 c64 0 88 4 100 16 22 21 20 77 -3 105 -17 21 -30 24 -112 29 l-94 5 -11 93 c-7 50 -17 98 -23 106 -16 19 -60 33 -89 28z"/>
 </g>

</svg>